<?xml version="1.0" encoding="UTF-8"?>
<svg version="1.1" xmlns="http://www.w3.org/2000/svg" width="1024" height="1024">
<path d="M0 0 C337.92 0 675.84 0 1024 0 C1024 337.92 1024 675.84 1024 1024 C686.08 1024 348.16 1024 0 1024 C0 686.08 0 348.16 0 0 Z " fill="#FEFEFE" transform="translate(0,0)"/>
<path d="M0 0 C-0.82229751 31.37064995 -9.16380309 59.85299186 -31 83 C-31.70511719 83.74765625 -32.41023437 84.4953125 -33.13671875 85.265625 C-45.48946649 97.218379 -62.7237873 103.89155575 -79.25 107.3125 C-80.07790039 107.48434814 -80.90580078 107.65619629 -81.75878906 107.83325195 C-87.25799776 108.88508822 -92.40255654 109.15173793 -98 109 C-97.49528712 103.91404713 -95.71956097 100.20985689 -93.0625 95.9375 C-92.66353516 95.28555664 -92.26457031 94.63361328 -91.85351562 93.96191406 C-87.68295383 87.27798883 -82.94408776 81.123123 -78 75 C-77.28199219 74.08863281 -76.56398438 73.17726563 -75.82421875 72.23828125 C-66.93497467 61.10641252 -57.56587121 50.40679578 -46 42 C-56.90471643 45.63490548 -65.61586865 53.44183571 -74 61 C-74.98419922 61.85851562 -74.98419922 61.85851562 -75.98828125 62.734375 C-88.80561519 74.60340977 -97.54186732 90.78210184 -102.61572266 107.28344727 C-102.96090691 108.39744274 -102.96090691 108.39744274 -103.31306458 109.53394318 C-103.87718235 111.35540378 -104.43883814 113.17762656 -105 115 C-103.72071121 114.99333817 -102.44142242 114.98667633 -101.12336731 114.97981262 C-89.0724286 114.91902061 -77.02152096 114.87403646 -64.97046375 114.84456348 C-58.77475918 114.82890181 -52.5791783 114.80765407 -46.38354492 114.77368164 C-40.4053952 114.74110655 -34.42736454 114.72315077 -28.44913292 114.71536827 C-26.16734632 114.70982147 -23.88556631 114.69899008 -21.60383034 114.68280983 C-18.40997821 114.66106054 -15.21661924 114.65803208 -12.02270508 114.65942383 C-10.60498055 114.64324509 -10.60498055 114.64324509 -9.15861511 114.6267395 C-2.81345083 114.6566954 0.45582118 115.79962913 5.3125 120 C9.06541591 126.67185051 7.11266748 134.31913402 5.16748047 141.37304688 C4.34417594 144.16352083 3.48276721 146.9411508 2.6171875 149.71875 C2.15943747 151.22653507 1.70301285 152.73472309 1.24783325 154.24328613 C0.05035188 158.19879552 -1.16538617 162.14845777 -2.3850708 166.09716797 C-3.60417635 170.05606818 -4.80505924 174.02048295 -6.0078125 177.984375 C-8.25971199 185.39529643 -10.53573234 192.79854442 -12.82510376 200.19796753 C-13.85941499 203.54505874 -14.8863766 206.89428548 -15.91088867 210.24438477 C-16.43616056 211.94563764 -16.96190183 213.64674572 -17.48828125 215.34765625 C-17.81646347 216.42829346 -17.81646347 216.42829346 -18.15127563 217.53076172 C-20.88352319 226.2690006 -24.68730535 233.4951073 -32.83002281 238.0160532 C-41.21848301 241.98334194 -49.75134809 241.55643032 -58.80712891 241.50170898 C-60.59856083 241.50549726 -62.38998981 241.51100148 -64.18141174 241.51808167 C-69.02223724 241.53198517 -73.86270529 241.52090338 -78.70351076 241.50437045 C-83.78064501 241.49046995 -88.85775957 241.49698555 -93.93490601 241.50050354 C-102.45698779 241.50320122 -110.97892838 241.48976641 -119.50097656 241.46655273 C-129.34290981 241.43992874 -139.18460731 241.438203 -149.02656424 241.4499411 C-158.51142674 241.46073175 -167.99620426 241.45452279 -177.48106003 241.44038582 C-181.51037997 241.43463892 -185.53963746 241.43469845 -189.56895828 241.43945122 C-194.31494361 241.4442346 -199.06067176 241.43406303 -203.8066082 241.41249657 C-205.54480942 241.40694769 -207.28303545 241.4064459 -209.02123833 241.41144943 C-211.400397 241.4174376 -213.77877857 241.40483062 -216.15786743 241.38768005 C-216.83978704 241.3936901 -217.52170665 241.39970014 -218.22429049 241.40589231 C-224.08857778 241.3294206 -229.35013244 239.8825498 -234.171875 236.45703125 C-234.95304687 235.64298828 -234.95304687 235.64298828 -235.75 234.8125 C-236.28109375 234.28269531 -236.8121875 233.75289062 -237.359375 233.20703125 C-242.63176958 226.11440521 -244.7974126 217.74215471 -247.265625 209.38671875 C-247.66610041 208.05017097 -248.0672174 206.71381529 -248.46893311 205.37763977 C-249.52447221 201.86036796 -250.57117951 198.34052842 -251.61602783 194.82006836 C-252.65135728 191.33740628 -253.69514766 187.85728401 -254.73828125 184.37695312 C-255.97057745 180.26439253 -257.20022553 176.15110886 -258.4185791 172.03439331 C-260.37092188 165.43931291 -262.34718604 158.85451015 -264.39257812 152.28759766 C-264.76678894 151.07054642 -265.14099976 149.85349518 -265.52655029 148.5995636 C-266.22371427 146.33484168 -266.93128381 144.07328344 -267.65167236 141.81584167 C-272.14123168 127.11209089 -272.14123168 127.11209089 -269.02484131 121.12727356 C-266.75463049 118.22945874 -264.39626813 116.32583381 -261 115 C-258.25890732 114.75390434 -258.25890732 114.75390434 -255.05218506 114.75949097 C-253.83504822 114.75674164 -252.61791138 114.75399231 -251.3638916 114.75115967 C-250.01830956 114.75823743 -248.67272851 114.76550704 -247.32714844 114.77294922 C-245.90785734 114.77351347 -244.48856566 114.77319651 -243.0692749 114.77206421 C-239.21834376 114.77149022 -235.36753714 114.78325196 -231.51663494 114.79721212 C-227.49142271 114.8097118 -223.46620765 114.81088938 -219.440979 114.81326294 C-211.81956851 114.81947995 -204.19821538 114.83589376 -196.57683015 114.85596192 C-187.89976423 114.87831404 -179.22269558 114.88931262 -170.54560804 114.89935279 C-152.69703951 114.92025979 -134.84852437 114.95544007 -117 115 C-116.90558624 113.37306969 -116.90558624 113.37306969 -116.80926514 111.71327209 C-116.72289099 110.26855812 -116.63639785 108.82385125 -116.54980469 107.37915039 C-116.48827713 106.31070766 -116.48827713 106.31070766 -116.42550659 105.22068024 C-116.06213214 99.22274406 -115.3183098 93.35246835 -114.25 87.4375 C-114.0744458 86.45789307 -113.8988916 85.47828613 -113.71801758 84.46899414 C-109.03242383 59.53179258 -97.64751747 37.73690391 -76.85546875 22.73046875 C-53.98541446 7.0982782 -27.65879811 -1.00509764 0 0 Z " fill="#369C3B" transform="translate(609,268)"/>
<path d="M0 0 C1.08375412 -0.00287018 2.16750824 -0.00574036 3.28410339 -0.00869751 C5.57458011 -0.01073665 7.86507429 -0.00521735 10.15551758 0.00732422 C13.64509507 0.02333257 17.13350608 0.0074938 20.62304688 -0.01171875 C22.85286712 -0.00973538 25.08268665 -0.00588976 27.3125 0 C28.86757011 -0.00910904 28.86757011 -0.00910904 30.45405579 -0.0184021 C37.38226323 0.04815973 43.37397129 0.68712743 49.02734375 5.08984375 C49.80851562 6.01603516 49.80851562 6.01603516 50.60546875 6.9609375 C51.40210938 7.86005859 51.40210938 7.86005859 52.21484375 8.77734375 C57.42371117 17.09912956 59.71208518 27.10978152 62.49609375 36.4453125 C62.93979343 37.92109673 63.38387453 39.39676633 63.82830811 40.87232971 C65.014193 44.81392263 66.19433595 48.75721243 67.37322998 52.70090103 C68.35480652 55.98185865 69.3398 59.26178614 70.32482147 62.54171085 C77.49441756 86.41621526 84.60901272 110.30722189 91.66192627 134.21646118 C92.23944676 136.1716491 92.8184546 138.12639843 93.39910889 140.08065796 C94.77724373 144.72094924 96.13320329 149.36547432 97.4453125 154.02490234 C97.70417236 154.9275029 97.96303223 155.83010345 98.22973633 156.76005554 C98.70968295 158.43429861 99.18049048 160.11120609 99.6394043 161.79133606 C101.62159999 168.63549963 104.18938875 175.03918152 110.3474884 179.0954895 C117.82906423 183.02617395 126.64242175 182.06437751 134.8659668 181.99438477 C136.79842463 181.99629036 138.73088136 182.00044947 140.66333008 182.00668335 C144.81145262 182.01545193 148.9591559 182.0087623 153.10724449 181.99002266 C159.66688623 181.960872 166.2261687 181.96873881 172.7858429 181.98191833 C185.52139345 182.00255541 198.25676898 181.98699171 210.99230957 181.96644592 C227.21406378 181.94127981 243.43572127 181.92843019 259.65747863 181.95640224 C266.17819255 181.96635706 272.69847465 181.95622526 279.21914136 181.93049443 C283.27293079 181.91832822 287.32658517 181.92252354 291.38037872 181.93107224 C293.2597317 181.93160751 295.13910113 181.92526452 297.01840401 181.91153145 C299.58453418 181.89368934 302.14948744 181.90040713 304.71562195 181.9131012 C305.45852264 181.90193018 306.20142332 181.89075916 306.96683615 181.87924963 C312.9600988 181.9516239 316.25128956 184.15345544 320.66796875 187.9609375 C323.21690621 191.04649338 323.13381017 194.55405801 323.0703125 198.40625 C322.63349206 202.45676685 320.54036541 204.70892261 317.76113224 207.50689602 C314.01203025 209.94750277 310.880199 209.95912651 306.55235291 209.9131012 C305.71941934 209.92004672 304.88648577 209.92699225 304.02831179 209.93414825 C301.23857245 209.95243721 298.44968172 209.94214854 295.65991211 209.93188477 C293.65895959 209.93894261 291.65801241 209.94768706 289.65707397 209.95799255 C284.22070003 209.98052017 278.7846168 209.97753755 273.34821391 209.96867108 C268.805894 209.96356222 264.26362877 209.97085357 259.72131449 209.97814316 C248.99816179 209.99515542 238.27515132 209.99156591 227.55200195 209.97485352 C216.50536994 209.95795886 205.45913385 209.9737273 194.41254514 210.0060764 C184.91931203 210.03281913 175.4262018 210.0400348 165.93293482 210.03156132 C160.26738971 210.02664233 154.60208238 210.02879106 148.93656731 210.04934883 C143.60204293 210.06777738 138.26808437 210.06165951 132.93358994 210.03714943 C130.98259701 210.03216288 129.03156046 210.03557483 127.08060265 210.04829788 C114.17080834 210.12578287 102.32810638 209.59465021 92.48046875 200.0234375 C91.67480469 199.24097656 90.86914062 198.45851563 90.0390625 197.65234375 C89.31847656 196.90855469 88.59789062 196.16476562 87.85546875 195.3984375 C87.26894531 194.80933594 86.68242187 194.22023438 86.078125 193.61328125 C77.83480059 184.74069543 75.01842066 173.05991241 71.75201416 161.72839355 C70.26300703 156.56454081 68.74144927 151.41021341 67.2265625 146.25390625 C66.89269531 145.11398224 66.55882812 143.97405823 66.21484375 142.79959106 C63.29827717 132.85642193 60.32143855 122.93200971 57.328125 113.01171875 C57.08805033 112.21603926 56.84797565 111.42035976 56.60062599 110.60056877 C55.1362539 105.74829903 53.67059503 100.89641864 52.20450974 96.04466629 C49.03728051 85.5626549 45.87260606 75.07988406 42.72006702 64.59344387 C41.48773738 60.49524066 40.25032913 56.39861747 39.00898933 52.30313492 C38.06543319 49.18517299 37.12897757 46.06507834 36.19140625 42.9453125 C35.85066071 41.82650696 35.50991516 40.70770142 35.15884399 39.55499268 C34.85296356 38.53234314 34.54708313 37.5096936 34.23193359 36.45605469 C33.83063736 35.12728302 33.83063736 35.12728302 33.42123413 33.77166748 C32.85546875 31.3984375 32.85546875 31.3984375 32.85546875 27.3984375 C32.3072496 27.41176117 31.75903046 27.42508484 31.19419861 27.43881226 C25.46767739 27.57196563 19.74159858 27.66221713 14.01391602 27.72802734 C11.87896857 27.75812666 9.74414404 27.79901663 7.60961914 27.85107422 C4.53370796 27.92419073 1.45943672 27.95796271 -1.6171875 27.984375 C-3.03947411 28.03082657 -3.03947411 28.03082657 -4.49049377 28.07821655 C-10.44739433 28.08121474 -13.58358544 27.0712787 -17.88572693 22.88565063 C-20.74990858 19.50176602 -20.47504478 16.20885924 -20.42578125 11.94140625 C-19.91567574 7.32920228 -17.65387757 4.66546365 -14.1965332 1.76318359 C-9.53652548 -0.32060516 -5.04844299 -0.02939974 0 0 Z " fill="#369B3A" transform="translate(257.14453125,337.6015625)"/>
<path d="M0 0 C27.45240906 -1.61221326 55.04073155 9.42621697 75.56005859 27.36376953 C93.2252307 43.28923128 102.34697411 65.14820456 104.21142578 88.66699219 C104.70945848 98.42414889 104.5588915 107.76382921 101 117 C100.34 117 99.68 117 99 117 C98.72438232 116.33693848 98.44876465 115.67387695 98.16479492 114.99072266 C89.7832221 94.9862184 80.76532283 77.0146963 66 61 C65.02160156 59.89978516 65.02160156 59.89978516 64.0234375 58.77734375 C60.00548015 54.4772745 55.5013295 51.0034127 50.75 47.5625 C50.14696045 47.12462158 49.5439209 46.68674316 48.92260742 46.2355957 C45.96907801 44.15770477 43.52553659 42.7332925 40 42 C40.61089478 42.59518433 40.61089478 42.59518433 41.23413086 43.20239258 C49.32131633 51.10933044 57.11315048 59.00246981 64 68 C64.44907715 68.57266602 64.8981543 69.14533203 65.36083984 69.73535156 C94 106.25816441 94 106.25816441 94 119 C87.6189004 119.28703908 82.30224798 118.35095358 76.1875 116.5625 C75.27605225 116.29663086 74.36460449 116.03076172 73.42553711 115.75683594 C47.0186474 107.69345438 25.27502538 92.7800224 12.01123047 68.16503906 C3.00768023 50.73017857 -0.2136487 30.94004857 -0.0625 11.5 C-0.05798828 10.39140625 -0.05347656 9.2828125 -0.04882812 8.140625 C-0.03713158 5.42702601 -0.02074086 2.71354239 0 0 Z " fill="#359B39" transform="translate(383,251)"/>
<path d="M0 0 C6.85296767 4.89133752 10.89049553 11.4247989 13.1015625 19.5 C13.1015625 20.82 13.1015625 22.14 13.1015625 23.5 C-3.34561072 24.72969519 -3.34561072 24.72969519 -6.92578125 21.89453125 C-8.0234375 19.8125 -8.0234375 19.8125 -8.9375 17.61328125 C-10.3948073 14.40838999 -12.43876611 13.03618004 -15.4609375 11.34765625 C-21.78952101 9.14685077 -29.19214618 9.35026967 -35.3359375 12.0625 C-41.45209231 15.75283813 -45.46711536 20.99814823 -47.4296875 27.85546875 C-49.19074198 37.79075109 -48.83580767 49.01427636 -43.4921875 57.81640625 C-39.29354025 63.19344743 -34.45587097 65.81015896 -27.8984375 67.5 C-20.92481784 68.35640943 -14.55876735 66.4810967 -8.9609375 62.3125 C-6.31787924 58.70832964 -5.71382356 55.87343433 -4.8984375 51.5 C-10.1784375 51.17 -15.4584375 50.84 -20.8984375 50.5 C-20.8984375 45.88 -20.8984375 41.26 -20.8984375 36.5 C-9.3484375 36.5 2.2015625 36.5 14.1015625 36.5 C14.1015625 62.80357143 14.1015625 62.80357143 4.3515625 73.40234375 C-0.47616595 78.00620576 -5.57259607 80.49896853 -11.8984375 82.5 C-12.48882812 82.69335938 -13.07921875 82.88671875 -13.6875 83.0859375 C-26.68575931 85.52024048 -39.39722502 83.36810701 -50.5078125 76.29296875 C-57.45848196 71.07996665 -62.12609518 64.70723124 -64.8984375 56.5 C-65.43017578 54.95892578 -65.43017578 54.95892578 -65.97265625 53.38671875 C-69.38487669 39.06115194 -67.86509995 23.58577968 -60.359375 10.8984375 C-46.62628764 -8.56219341 -19.80127926 -11.75482302 0 0 Z " fill="#359B39" transform="translate(177.8984375,653.5)"/>
<path d="M0 0 C5.01983993 4.28026867 8.96875071 9.53125214 11.0625 15.8125 C11.10204234 18.14549825 11.10651732 20.47958189 11.0625 22.8125 C-0.88242541 23.88993759 -0.88242541 23.88993759 -5.9375 22.8125 C-8.36560889 20.74057166 -9.321291 18.92738816 -10.71484375 16.08203125 C-12.43059273 12.89720647 -14.31688134 11.76781466 -17.6015625 10.40234375 C-24.60799652 8.63316058 -31.88468749 8.75145205 -38.19140625 12.48828125 C-44.38362246 17.18439153 -48.10799667 23.22466972 -49.25512695 30.95214844 C-49.41017282 33.16537179 -49.45623769 35.34400575 -49.4375 37.5625 C-49.43250488 38.34455811 -49.42750977 39.12661621 -49.42236328 39.93237305 C-49.19473761 47.57196137 -47.51960724 54.66238598 -42.41015625 60.58203125 C-40.72731799 62.13828468 -40.72731799 62.13828468 -37.9375 63.8125 C-37.37933594 64.17472656 -36.82117188 64.53695312 -36.24609375 64.91015625 C-32.89264985 66.22089321 -29.60970949 66.1412716 -26.0625 66.125 C-25.36769531 66.14111328 -24.67289063 66.15722656 -23.95703125 66.17382812 C-18.01081899 66.17942719 -13.95167119 64.77072199 -9.6875 60.625 C-7.45836507 57.04246173 -6.77674223 53.9387743 -5.9375 49.8125 C-11.2175 49.8125 -16.4975 49.8125 -21.9375 49.8125 C-21.9375 45.5225 -21.9375 41.2325 -21.9375 36.8125 C-10.7175 36.8125 0.5025 36.8125 12.0625 36.8125 C12.75938774 61.37779292 12.75938774 61.37779292 4.4375 71.6875 C-2.87230404 79.29677459 -12.88565035 82.98047682 -23.34350586 83.19335938 C-37.07459667 83.15809494 -47.51004298 80.29354277 -57.9375 70.8125 C-60.45226933 68.00495087 -62.25422295 65.17905411 -63.9375 61.8125 C-64.34871094 61.01070312 -64.75992187 60.20890625 -65.18359375 59.3828125 C-68.09108938 52.44104093 -68.3193988 45.6084853 -68.375 38.1875 C-68.38515137 37.22183105 -68.39530273 36.25616211 -68.40576172 35.26123047 C-68.26671784 23.77933967 -64.91947689 13.42483575 -57.12109375 4.8046875 C-41.98371655 -9.32353122 -17.2068008 -12.37278318 0 0 Z " fill="#349A38" transform="translate(541.9375,654.1875)"/>
<path d="M0 0 C6.87380566 4.34632385 11.07876626 10.08487114 13 18 C14.17582048 28.12715845 14.4562623 39.05249295 9 48 C8.46375 48.9075 7.9275 49.815 7.375 50.75 C-0.74717736 58.44469434 -9.90133648 61.47052574 -20.94140625 61.25 C-28.61027899 60.62317004 -36.13251592 58.09942285 -42 53 C-48.42980862 45.26994119 -50.36023853 38.0703058 -50.375 28.1875 C-50.41173828 26.91036133 -50.41173828 26.91036133 -50.44921875 25.60742188 C-50.48486239 17.80740432 -48.15852942 12.11787583 -43.75 5.75 C-32.27545297 -5.72454703 -14.20719973 -7.77462395 0 0 Z " fill="#359B39" transform="translate(660,676)"/>
<path d="M0 0 C6.4345064 4.57817977 10.16959304 10.82879658 12.25 18.375 C13.27934445 29.1496964 11.71042079 37.0766295 4.984375 45.55078125 C-1.28401916 52.14388953 -9.03602614 54.39813533 -17.9375 54.875 C-26.94938055 54.70907355 -34.47902967 51.15860769 -40.75 44.6875 C-45.61093104 38.4598035 -48.57011544 30.64740414 -48.12890625 22.69140625 C-46.56470677 13.12882595 -42.43947887 5.76530653 -34.765625 -0.15625 C-23.43154382 -7.71230412 -11.41732544 -6.91959118 0 0 Z " fill="#369C3A" transform="translate(417.75,562.625)"/>
<path d="M0 0 C7.2117416 4.16438883 12.46731207 10.41635996 15 18.41015625 C16.91790978 27.84558741 15.22660592 36.80031043 9.9296875 44.85546875 C4.44111298 51.65874832 -2.67081248 55.91605095 -11.375 56.87109375 C-21.03003423 57.26155469 -28.28173471 55.0235075 -35.7265625 48.734375 C-41.75639855 42.42229131 -44.72003376 35.19422368 -45.0625 26.5 C-44.68373561 16.95758113 -40.49635174 9.97910876 -33.5625 3.5625 C-23.7343384 -3.71828883 -11.24689197 -5.15363911 0 0 Z " fill="#369B3A" transform="translate(547.5625,560.4375)"/>
<path d="M0 0 C0.59941406 0.38800781 1.19882812 0.77601563 1.81640625 1.17578125 C2.86828125 1.83578125 3.92015625 2.49578125 5.00390625 3.17578125 C10.53278603 8.1177967 13.40549045 16.12120226 14.81640625 23.17578125 C14.81640625 26.80578125 14.81640625 30.43578125 14.81640625 34.17578125 C0.29640625 34.17578125 -14.22359375 34.17578125 -29.18359375 34.17578125 C-26.99856911 42.71749117 -26.99856911 42.71749117 -21.18359375 47.17578125 C-15.03405253 48.82875943 -10.68715567 48.32067378 -5.18359375 45.17578125 C-4.52359375 44.18578125 -3.86359375 43.19578125 -3.18359375 42.17578125 C-0.23295227 41.95492485 2.50008856 41.89517136 5.44140625 41.98828125 C6.64410156 42.00858398 6.64410156 42.00858398 7.87109375 42.02929688 C9.85315003 42.06469074 11.83486176 42.11849891 13.81640625 42.17578125 C11.99836624 49.2619093 9.68169456 53.57659258 3.5625 57.69140625 C-5.11773941 62.66788618 -14.14735706 63.77143055 -24.04296875 61.52734375 C-32.21046483 58.55965108 -39.15610376 52.93242864 -43.18359375 45.17578125 C-47.13103659 34.52964753 -47.82958771 23.71254491 -43.18359375 13.17578125 C-39.29987586 6.38834905 -33.6808782 1.03321698 -26.421875 -1.96484375 C-18.08983099 -4.17600139 -7.64934667 -4.22383279 0 0 Z " fill="#369B39" transform="translate(794.18359375,674.82421875)"/>
<path d="M0 0 C2.05078125 1.12890625 2.05078125 1.12890625 3.9375 2.375 C4.57042969 2.77589844 5.20335937 3.17679688 5.85546875 3.58984375 C12.35334811 8.36973368 15.03415373 15.76161492 16.9375 23.375 C16.9375 27.005 16.9375 30.635 16.9375 34.375 C2.4175 34.375 -12.1025 34.375 -27.0625 34.375 C-24.48113043 43.29854636 -24.48113043 43.29854636 -18.2421875 48.4765625 C-15.63951591 49.54934828 -13.92074834 49.54942783 -11.125 49.3125 C-10.29097656 49.25964844 -9.45695312 49.20679688 -8.59765625 49.15234375 C-5.81450369 48.53848818 -5.81450369 48.53848818 -3.796875 45.8359375 C-0.46017189 42.8329047 1.09917716 42.84282703 5.41992188 42.93554688 C6.18884766 42.97744141 6.95777344 43.01933594 7.75 43.0625 C8.53826172 43.08505859 9.32652344 43.10761719 10.13867188 43.13085938 C12.07243929 43.18945839 14.00522167 43.27913173 15.9375 43.375 C14.2920929 50.93358887 11.24842195 54.95975422 4.9375 59.375 C-3.09440359 64.09964917 -12.80785392 64.82916141 -21.8515625 62.7265625 C-30.15305977 59.7195186 -36.83980122 54.17075159 -41.0625 46.375 C-44.25726169 37.18427252 -45.23571509 24.34240693 -41.5 15.1875 C-40.38671875 13.2265625 -40.38671875 13.2265625 -39.0625 11.375 C-38.55332031 10.66085937 -38.04414063 9.94671875 -37.51953125 9.2109375 C-28.90768318 -1.62777289 -12.89725223 -5.38689391 0 0 Z " fill="#339A37" transform="translate(290.0625,673.625)"/>
<path d="M0 0 C8.04230865 4.39789728 13.13501805 9.68069076 16 18.4375 C17 22.4375 17 22.4375 17 34.4375 C2.48 34.4375 -12.04 34.4375 -27 34.4375 C-24.30345286 43.34823746 -24.30345286 43.34823746 -18 48.4375 C-14.92805092 49.97347454 -12.39755707 49.6640038 -9 49.4375 C-4.89867529 47.84674776 -4.89867529 47.84674776 -1.83984375 44.84375 C1.15974973 42.55106708 4.57639267 43.12700158 8.1875 43.25 C9.31188477 43.27030273 9.31188477 43.27030273 10.45898438 43.29101562 C12.30629767 43.32631461 14.15324066 43.38012083 16 43.4375 C15.2910183 50.36754647 12.03351394 53.86473949 7 58.4375 C-1.13074061 63.79939381 -9.43845498 64.16185947 -19 63.4375 C-26.22131288 61.79987987 -32.20114095 58.06816128 -37 52.4375 C-43.38958096 42.2650328 -44.9653253 30.12985303 -42.31640625 18.4140625 C-38.89373854 9.18280104 -33.40314365 3.6839945 -24.48828125 -0.45703125 C-16.70955144 -2.92218303 -7.6523248 -3.02656715 0 0 Z " fill="#339A37" transform="translate(358,673.5625)"/>
<path d="M0 0 C6.27 0 12.54 0 19 0 C19.58285767 1.90060181 19.58285767 1.90060181 20.17749023 3.83959961 C21.61491301 8.52384582 23.05645429 13.20681591 24.49926758 17.8894043 C25.12409761 19.9193296 25.74779811 21.94960294 26.37036133 23.98022461 C27.26349519 26.89267942 28.16063454 29.80387361 29.05859375 32.71484375 C29.3377916 33.6283812 29.61698944 34.54191864 29.90464783 35.48313904 C30.16484207 36.32393509 30.42503632 37.16473114 30.69311523 38.03100586 C30.92183823 38.77491074 31.15056122 39.51881561 31.38621521 40.28526306 C31.86479377 42.00727442 31.86479377 42.00727442 33 43 C37.29 28.81 41.58 14.62 46 0 C51.61 0 57.22 0 63 0 C60.90136617 7.9916208 58.47745353 15.79916282 55.796875 23.61328125 C55.19555756 25.37130318 55.19555756 25.37130318 54.58209229 27.1648407 C53.73685795 29.63033993 52.8896386 32.09515945 52.04052734 34.55932617 C50.75832031 38.28830247 49.49033944 42.02192487 48.22265625 45.75585938 C36.14112776 81.04696216 36.14112776 81.04696216 25.1328125 87.01171875 C19.09772345 89.689941 12.26392383 90.08797461 6 88 C6 83.38 6 78.76 6 74 C7.546875 73.896875 9.09375 73.79375 10.6875 73.6875 C14.82335274 73.2663099 17.73694413 72.75320339 21 70 C22.48396654 68.19907702 22.48396654 68.19907702 23 66 C22.48006156 62.62999689 21.5702047 59.53829192 20.40527344 56.34008789 C20.08113464 55.44467789 19.75699585 54.54926788 19.42303467 53.62672424 C19.07202698 52.66838181 18.72101929 51.71003937 18.359375 50.72265625 C17.99531555 49.71972031 17.6312561 48.71678436 17.25616455 47.68345642 C16.09080635 44.47523619 14.92053927 41.26883306 13.75 38.0625 C12.97752705 35.93957591 12.20538819 33.81653023 11.43359375 31.69335938 C10.31107352 28.60552668 9.18830919 25.51778597 8.06408691 22.43057251 C5.34585111 14.96423044 2.66064289 7.48704911 0 0 Z " fill="#349A38" transform="translate(862,673)"/>
<path d="M0 0 C5.95644616 2.65731814 9.41502581 6.92495864 12.12231445 12.82226562 C13.95720288 17.91022457 13.88281082 22.78538395 13.796875 28.140625 C13.79263016 29.15032349 13.78838531 30.16002197 13.78401184 31.20031738 C13.76732839 34.39945057 13.72969528 37.59793483 13.69140625 40.796875 C13.67634607 42.97655335 13.66266 45.15624165 13.65039062 47.3359375 C13.6174587 52.65649693 13.56574806 57.97657625 13.50390625 63.296875 C7.89390625 63.296875 2.28390625 63.296875 -3.49609375 63.296875 C-3.51067627 62.02046143 -3.52525879 60.74404785 -3.5402832 59.42895508 C-3.59832915 54.68567121 -3.67556203 49.94285893 -3.75854492 45.19995117 C-3.79176458 43.14859684 -3.81980572 41.09715175 -3.8425293 39.0456543 C-3.87612945 36.09384551 -3.92844851 33.14286614 -3.984375 30.19140625 C-3.99076492 29.27664017 -3.99715485 28.36187408 -4.0037384 27.41938782 C-4.11464244 22.59803859 -4.31120585 19.1836585 -7.49609375 15.296875 C-11.21062607 13.43960884 -15.451888 13.71186411 -19.49609375 14.296875 C-22.32033663 16.48710418 -23.91117978 18.12704707 -25.49609375 21.296875 C-25.61314339 22.65439796 -25.67286564 24.01713388 -25.70141602 25.37939453 C-25.72136124 26.22011505 -25.74130646 27.06083557 -25.76185608 27.92703247 C-25.78692482 29.28959671 -25.78692482 29.28959671 -25.8125 30.6796875 C-25.8332811 31.60909149 -25.85406219 32.53849548 -25.87547302 33.49606323 C-25.94097021 36.4712571 -25.99985427 39.44654077 -26.05859375 42.421875 C-26.10177881 44.43620728 -26.14539309 46.45053041 -26.18945312 48.46484375 C-26.29665178 53.40876163 -26.39791876 58.35277003 -26.49609375 63.296875 C-32.10609375 63.296875 -37.71609375 63.296875 -43.49609375 63.296875 C-43.49609375 42.506875 -43.49609375 21.716875 -43.49609375 0.296875 C-38.21609375 0.296875 -32.93609375 0.296875 -27.49609375 0.296875 C-27.16609375 1.946875 -26.83609375 3.596875 -26.49609375 5.296875 C-25.65691406 4.6471875 -25.65691406 4.6471875 -24.80078125 3.984375 C-17.02006336 -1.41959627 -9.20278094 -2.59233266 0 0 Z " fill="#359B39" transform="translate(429.49609375,672.703125)"/>
<path d="M0 0 C6.52018882 3.58293871 12.35676831 8.30253591 14.9375 15.4375 C15.29265922 17.43373973 15.62898189 19.43352203 15.9375 21.4375 C13.16504986 21.57237595 10.39912912 21.67150807 7.625 21.75 C6.83931641 21.79189453 6.05363281 21.83378906 5.24414062 21.87695312 C3.03722567 21.92390876 1.09466021 21.91172058 -1.0625 21.4375 C-3.13139398 19.01258219 -4.0625 17.63719005 -4.0625 14.4375 C-9.46729293 12.32831252 -14.24249179 11.25703145 -19.75 13.5625 C-23.08687033 16.26807054 -25.65772107 19.15971557 -26.43188477 23.51611328 C-26.56346515 25.83588306 -26.55940463 28.11497049 -26.5 30.4375 C-26.50708984 31.21867188 -26.51417969 31.99984375 -26.52148438 32.8046875 C-26.4577598 38.62813346 -25.4870793 43.0129207 -21.21484375 47.28515625 C-17.08566464 49.49587828 -12.60071991 49.04349376 -8.0625 48.4375 C-3.49089093 45.91845011 -3.07474145 44.46810363 -1.0625 39.4375 C4.5475 39.4375 10.1575 39.4375 15.9375 39.4375 C13.41233637 49.53815453 11.06930144 54.60532663 2.31640625 60.2109375 C-5.83860983 64.41565843 -15.1232592 64.8201804 -24.015625 62.75 C-33.00926951 59.43945601 -38.02522775 54.47919977 -42.1171875 45.90234375 C-45.42485832 37.27779712 -46.03820332 23.93120039 -42.5 15.3125 C-34.12356176 0.35247521 -16.40210364 -6.74532909 0 0 Z " fill="#349A38" transform="translate(726.0625,673.5625)"/>
<path d="M0 0 C0 4.95 0 9.9 0 15 C-2.206875 15.061875 -4.41375 15.12375 -6.6875 15.1875 C-12.37014535 15.55370032 -12.37014535 15.55370032 -17.25 18.3125 C-18.11625 19.6428125 -18.11625 19.6428125 -19 21 C-19.35755371 21.53141602 -19.71510742 22.06283203 -20.08349609 22.61035156 C-21.50447847 26.31535304 -21.35943301 29.9850274 -21.4140625 33.921875 C-21.43342865 34.78186096 -21.4527948 35.64184692 -21.4727478 36.52789307 C-21.53241814 39.26849521 -21.5788786 42.00913964 -21.625 44.75 C-21.66319134 46.61069517 -21.70224375 48.47137288 -21.7421875 50.33203125 C-21.83972679 54.8879288 -21.9193941 59.4436455 -22 64 C-27.61 64 -33.22 64 -39 64 C-39 43.21 -39 22.42 -39 1 C-33.72 1 -28.44 1 -23 1 C-22.67 3.31 -22.34 5.62 -22 8 C-21.46375 7.236875 -20.9275 6.47375 -20.375 5.6875 C-14.46960355 -0.9949223 -8.39022087 -0.27967403 0 0 Z " fill="#349A38" transform="translate(243,672)"/>
<path d="M0 0 C1.33417969 -0.00386719 1.33417969 -0.00386719 2.6953125 -0.0078125 C4.875 0.125 4.875 0.125 5.875 1.125 C5.94771741 3.47813555 5.95870868 5.83333668 5.9375 8.1875 C5.92847656 9.47785156 5.91945313 10.76820313 5.91015625 12.09765625 C5.89855469 13.09667969 5.88695312 14.09570312 5.875 15.125 C4.92238281 15.13917969 3.96976563 15.15335938 2.98828125 15.16796875 C-4.64140237 15.28027077 -4.64140237 15.28027077 -11.375 18.375 C-14.9252812 23.95401331 -15.44636168 28.46230356 -15.5390625 34.92578125 C-15.55842865 35.76215622 -15.5777948 36.59853119 -15.5977478 37.46025085 C-15.65730192 40.1192317 -15.70383174 42.7782564 -15.75 45.4375 C-15.78820206 47.24546109 -15.82725509 49.05340442 -15.8671875 50.86132812 C-15.96457814 55.28245716 -16.04433725 59.70340775 -16.125 64.125 C-21.735 64.125 -27.345 64.125 -33.125 64.125 C-33.125 43.335 -33.125 22.545 -33.125 1.125 C-27.845 1.125 -22.565 1.125 -17.125 1.125 C-16.795 3.435 -16.465 5.745 -16.125 8.125 C-15.58230469 7.63128906 -15.03960938 7.13757813 -14.48046875 6.62890625 C-13.76503906 5.98824219 -13.04960938 5.34757813 -12.3125 4.6875 C-11.60480469 4.04941406 -10.89710938 3.41132812 -10.16796875 2.75390625 C-6.86887519 0.12346262 -4.07742172 -0.01188753 0 0 Z " fill="#379C3B" transform="translate(852.125,671.875)"/>
<path d="M0 0 C1 1 1 1 1.09765625 4.16015625 C1.08605469 5.44792969 1.07445312 6.73570312 1.0625 8.0625 C1.05347656 9.35285156 1.04445313 10.64320313 1.03515625 11.97265625 C1.02355469 12.97167969 1.01195312 13.97070312 1 15 C-0.30324219 15.03867187 -0.30324219 15.03867187 -1.6328125 15.078125 C-10.67743573 15.28431501 -10.67743573 15.28431501 -18 20 C-21.95559439 28.69075848 -21.5566328 37.69184366 -21.6875 47.0625 C-21.72072508 48.70770864 -21.75521941 50.35289217 -21.79101562 51.99804688 C-21.87768 55.99871646 -21.93824283 59.99856127 -22 64 C-27.28 64 -32.56 64 -38 64 C-38 43.21 -38 22.42 -38 1 C-32.72 1 -27.44 1 -22 1 C-21.67 3.31 -21.34 5.62 -21 8 C-20.46375 7.236875 -19.9275 6.47375 -19.375 5.6875 C-13.90365925 -0.50375401 -7.8318369 -0.69379134 0 0 Z " fill="#339937" transform="translate(605,672)"/>
<path d="M0 0 C4.69994029 1.71728588 7.20959499 3.86606666 10 8 C11.21347754 11.64043263 11.2224972 15.02055186 11.25 18.8125 C11.270625 19.51181641 11.29125 20.21113281 11.3125 20.93164062 C11.3571825 26.90234024 9.88154965 30.82445822 6 35.3125 C2.27935715 38.45179241 -1.74532832 38.45215403 -6.421875 38.41796875 C-10.70352792 37.72382199 -13.32911891 35.30825045 -16 32 C-18.63319479 28.21313124 -18.3315764 24.06598633 -18.3125 19.625 C-18.32861328 18.8825 -18.34472656 18.14 -18.36132812 17.375 C-18.36562174 12.51463214 -17.65521472 9.21673385 -15 5 C-10.0900254 0.56904731 -6.61009495 -0.67827467 0 0 Z " fill="#FDFDFD" transform="translate(645,685)"/>
<path d="M0 0 C0.721875 0.556875 1.44375 1.11375 2.1875 1.6875 C2.765 2.079375 3.3425 2.47125 3.9375 2.875 C5.1875 4.6875 5.1875 4.6875 6.1875 12.6875 C-2.7225 12.6875 -11.6325 12.6875 -20.8125 12.6875 C-19.68362561 4.78537928 -19.68362561 4.78537928 -16.9375 2.3125 C-16.42445313 1.83039062 -15.91140625 1.34828125 -15.3828125 0.8515625 C-10.89950075 -2.4718875 -4.84459611 -2.26081152 0 0 Z " fill="#FCFDFC" transform="translate(785.8125,685.3125)"/>
<path d="M0 0 C3.214197 1.63631847 5.24693202 2.97308912 7.375 5.875 C8 8 8 8 8 14 C-0.91 14 -9.82 14 -19 14 C-16.73584906 4.94339623 -16.73584906 4.94339623 -11 1 C-7.52817697 -0.73591152 -3.79591036 -0.46571673 0 0 Z " fill="#FBFDFC" transform="translate(350,684)"/>
<path d="M0 0 C2.61483144 2.10639199 4.45856062 3.95946691 6.25 6.8125 C6.25 8.7925 6.25 10.7725 6.25 12.8125 C-2.66 12.8125 -11.57 12.8125 -20.75 12.8125 C-19.6760437 6.36876217 -18.11913629 3.3683965 -12.9375 -0.5625 C-8.36163222 -1.8698908 -4.31624142 -1.86383152 0 0 Z " fill="#FCFDFC" transform="translate(283.75,685.1875)"/>
<path d="M0 0 C5.28 0 10.56 0 16 0 C16 2.64 16 5.28 16 8 C15.67 8 15.34 8 15 8 C15 5.69 15 3.38 15 1 C10.38 1 5.76 1 1 1 C1 20.8 1 40.6 1 61 C5.62 61 10.24 61 15 61 C14.98952637 60.0212793 14.97905273 59.04255859 14.96826172 58.03417969 C14.93200907 54.39635895 14.90908042 50.75855413 14.89013672 47.12060547 C14.88009113 45.54733595 14.86645219 43.97408504 14.84912109 42.40087891 C14.82480904 40.13699748 14.81350253 37.87336334 14.8046875 35.609375 C14.79436493 34.90818542 14.78404236 34.20699585 14.77340698 33.48455811 C14.77249421 29.49430197 15.15405729 27.69188542 17 24 C17 36.87 17 49.74 17 63 C11.39 63 5.78 63 0 63 C0 42.21 0 21.42 0 0 Z " fill="#219124" transform="translate(819,673)"/>
<path d="M0 0 C1.32339119 3.97017357 1.01212931 7.69673557 0.87890625 11.82421875 C0.85529526 12.68561966 0.83168427 13.54702057 0.80735779 14.43452454 C0.7307872 17.18568675 0.6467344 19.9365628 0.5625 22.6875 C0.5092727 24.55272037 0.45653235 26.41795471 0.40429688 28.28320312 C0.27518096 32.85564996 0.13935423 37.42785421 0 42 C-5.28 42 -10.56 42 -16 42 C-16 41.34 -16 40.68 -16 40 C-11.38 40 -6.76 40 -2 40 C-2.01047363 39.00145996 -2.02094727 38.00291992 -2.03173828 36.97412109 C-2.06808458 33.2505251 -2.09095346 29.52694464 -2.10986328 25.80322266 C-2.11988763 24.19512287 -2.13351066 22.58704115 -2.15087891 20.97900391 C-2.17528488 18.66043624 -2.18651886 16.34211071 -2.1953125 14.0234375 C-2.20563507 13.31069672 -2.21595764 12.59795593 -2.22659302 11.86361694 C-2.2275565 7.52490917 -1.59437933 4.03284183 0 0 Z " fill="#3C9D3E" transform="translate(221,694)"/>
<path d="M0 0 C0.33 0.66 0.66 1.32 1 2 C-0.61594832 4.04119788 -2.2856382 6.04072937 -4 8 C-4.66 8 -5.32 8 -6 8 C-6.66 9.65 -7.32 11.3 -8 13 C-8.33 12.01 -8.66 11.02 -9 10 C-6.03 6.7 -3.06 3.4 0 0 Z " fill="#229024" transform="translate(515,563)"/>
<path d="M0 0 C0.33 0 0.66 0 1 0 C1.1799928 5.21979128 0.97094808 9.07262981 -1 14 C-1.66 14 -2.32 14 -3 14 C-3.66 11.69 -4.32 9.38 -5 7 C-4.01 7.495 -4.01 7.495 -3 8 C-3 8.66 -3 9.32 -3 10 C-2.34 10 -1.68 10 -1 10 C-0.67 6.7 -0.34 3.4 0 0 Z " fill="#1F8C20" transform="translate(485,354)"/>
<path d="M0 0 C4 6 4 6 8 12 C5.125 11.375 5.125 11.375 2 10 C0.27251133 6.38797823 0 4.02768404 0 0 Z " fill="#2B942D" transform="translate(626,710)"/>
<path d="M0 0 C0.66 0.66 1.32 1.32 2 2 C-0.31 4.31 -2.62 6.62 -5 9 C-5.66 8.34 -6.32 7.68 -7 7 C-4.69 4.69 -2.38 2.38 0 0 Z " fill="#259228" transform="translate(545,327)"/>
<path d="M0 0 C0.59296875 0.21527344 1.1859375 0.43054688 1.796875 0.65234375 C0.70241662 1.51891491 -0.40410281 2.37027099 -1.515625 3.21484375 C-2.13050781 3.69050781 -2.74539063 4.16617188 -3.37890625 4.65625 C-3.98089844 4.98496094 -4.58289063 5.31367187 -5.203125 5.65234375 C-6.193125 5.32234375 -7.183125 4.99234375 -8.203125 4.65234375 C-2.74543269 -0.43323317 -2.74543269 -0.43323317 0 0 Z " fill="#239125" transform="translate(846.203125,673.34765625)"/>
<path d="M0 0 C0.66 0.33 1.32 0.66 2 1 C0.02 2.98 -1.96 4.96 -4 7 C-4.99 6.67 -5.98 6.34 -7 6 C-4.69 4.02 -2.38 2.04 0 0 Z " fill="#219023" transform="translate(695,676)"/>
</svg>
