<?xml version="1.0" encoding="UTF-8"?>
<svg version="1.1" xmlns="http://www.w3.org/2000/svg" width="1024" height="1024">
<path d="M0 0 C337.92 0 675.84 0 1024 0 C1024 337.92 1024 675.84 1024 1024 C686.08 1024 348.16 1024 0 1024 C0 686.08 0 348.16 0 0 Z " fill="#FEFEFE" transform="translate(0,0)"/>
<path d="M0 0 C0.93070313 0.00902344 1.86140625 0.01804687 2.8203125 0.02734375 C3.49835938 0.03894531 4.17640625 0.05054688 4.875 0.0625 C3.11782037 46.83983358 -9.7614782 95.84863008 -44.875 128.75 C-68.72614621 150.32034143 -102.99639024 163.46385379 -135.1875 163.125 C-136.87552734 163.11146484 -136.87552734 163.11146484 -138.59765625 163.09765625 C-139.43167969 163.08605469 -140.26570312 163.07445312 -141.125 163.0625 C-139.88025638 158.91738289 -138.37525962 155.55010417 -136 151.9375 C-135.38108887 150.99076416 -134.76217773 150.04402832 -134.12451172 149.06860352 C-133.46467285 148.07658936 -132.80483398 147.0845752 -132.125 146.0625 C-131.10623779 144.51937134 -131.10623779 144.51937134 -130.06689453 142.94506836 C-121.53232131 130.07439765 -112.58191855 117.83069248 -102.69824219 105.96044922 C-101.28641058 104.25722468 -99.89485098 102.53980955 -98.5078125 100.81640625 C-91.65686264 92.43729642 -84.06432556 84.78992367 -76.4375 77.125 C-75.89806763 76.5803006 -75.35863525 76.0356012 -74.80285645 75.47439575 C-68.58176288 69.20638755 -62.30955507 63.24163801 -55.125 58.0625 C-72.34559184 66.05450339 -87.13240377 76.25036692 -101.125 89.0625 C-102.06859375 89.92230469 -103.0121875 90.78210938 -103.984375 91.66796875 C-125.33949823 112.06643183 -139.17354985 137.88854005 -147.125 166.0625 C-147.31400879 166.66102783 -147.50301758 167.25955566 -147.69775391 167.8762207 C-148.29694549 170.94236962 -148.14974297 173.94600213 -148.125 177.0625 C-147.35085062 177.06304477 -146.57670124 177.06358953 -145.77909279 177.06415081 C-126.9153044 177.07913834 -108.05176044 177.12166482 -89.18810463 177.19459057 C-80.06564299 177.22919799 -70.9433318 177.25459051 -61.82080078 177.25805664 C-53.86670798 177.26110246 -45.9128834 177.2816757 -37.95889413 177.32302457 C-33.74984749 177.34430045 -29.54118166 177.35698321 -25.33208084 177.34865379 C-21.36411592 177.34107909 -17.39692038 177.35707357 -13.42909622 177.39056015 C-11.97879299 177.39875254 -10.52841266 177.39859189 -9.07811737 177.38909721 C-0.41590641 177.33803702 6.6692785 177.89840227 13.875 183.0625 C18.17720116 187.35233003 19.17171053 191.21923063 19.28735352 197.25097656 C19.15123909 206.16744509 16.7431304 214.13470426 14.15234375 222.609375 C13.65321118 224.2924955 13.15576971 225.97611829 12.65989685 227.66020203 C11.33856574 232.13037145 9.9942069 236.59328308 8.64446259 241.05494308 C7.25060808 245.67490219 5.87657628 250.30074993 4.50048828 254.92602539 C2.3158945 262.26073318 0.1190324 269.5916577 -2.08544922 276.92041016 C-4.71533964 285.66784893 -7.29280777 294.42962023 -9.84765625 303.19921875 C-10.84247096 306.59396902 -11.8388746 309.9882461 -12.83639526 313.38220215 C-13.43805285 315.43543881 -14.03622738 317.48969983 -14.63064575 319.54504395 C-23.28202666 349.38990102 -23.28202666 349.38990102 -36.61328125 357.59375 C-45.09926726 362.02346045 -52.28975396 363.35975183 -61.7633667 363.32992554 C-62.82331006 363.33445665 -63.88325343 363.33898776 -64.97531629 363.34365618 C-68.52102362 363.35629929 -72.06657733 363.35467984 -75.61230469 363.35302734 C-78.15703529 363.35901265 -80.70176408 363.36581821 -83.24649048 363.37338257 C-89.43822513 363.38921522 -95.62990368 363.39549097 -101.82165667 363.39660732 C-106.85715619 363.39755906 -111.89264318 363.4016756 -116.92813873 363.40800858 C-131.21882314 363.42561449 -145.50947756 363.43484853 -159.8001729 363.43334763 C-160.9548295 363.43322776 -160.9548295 363.43322776 -162.1328125 363.43310547 C-163.28888637 363.43298283 -163.28888637 363.43298283 -164.46831527 363.43285771 C-176.95382002 363.43204511 -189.43920404 363.45117772 -201.92467389 363.4793822 C-214.75850804 363.5081438 -227.59228338 363.52192068 -240.42615056 363.52019465 C-247.62581435 363.51953185 -254.82535159 363.52497559 -262.02498627 363.54655075 C-268.79824959 363.56671881 -275.57120191 363.56605546 -282.34449387 363.55151749 C-284.82644669 363.54942862 -287.30841623 363.55413482 -289.79034042 363.5662384 C-293.1867717 363.58172524 -296.58228651 363.57235895 -299.97869873 363.55697632 C-300.95352919 363.56726344 -301.92835966 363.57755057 -302.93273044 363.58814943 C-314.46608994 363.47325409 -324.58813833 359.05901625 -333.0625 351.28515625 C-341.99646595 341.86983437 -344.88242574 328.90966752 -348.37109375 316.7734375 C-348.86376548 315.08257456 -349.35715508 313.39192064 -349.85121155 311.70146179 C-351.16194114 307.20859557 -352.46235526 302.71281113 -353.75997925 298.21614456 C-355.10248426 293.56786072 -356.45217856 288.92166406 -357.80078125 284.27514648 C-359.41174436 278.72201913 -361.02108049 273.16843161 -362.62521362 267.61332703 C-365.30825234 258.32236222 -368.00640863 249.03644633 -370.74610901 239.76202393 C-372.08318637 235.23308253 -373.40931882 230.70099079 -374.73269653 226.16802979 C-375.32101561 224.16168044 -375.9140702 222.15671276 -376.51217651 220.15325928 C-383.35755167 197.19032643 -383.35755167 197.19032643 -380.08789062 189.68041992 C-376.85077414 183.89661608 -372.45872852 180.09195638 -366.125 178.0625 C-363.34724045 177.86886339 -360.66982442 177.77702733 -357.89299011 177.7840271 C-357.06792396 177.7782347 -356.24285782 177.7724423 -355.39278966 177.76647437 C-352.63055379 177.74948089 -349.86848508 177.74659842 -347.10620117 177.74365234 C-345.12518911 177.73435372 -343.14418098 177.72418515 -341.16317749 177.71321106 C-335.78555423 177.6858896 -330.40795719 177.67075524 -325.03028274 177.65778303 C-319.41015725 177.64216193 -313.79008539 177.61536844 -308.16999817 177.5897522 C-297.52768666 177.54294637 -286.88536509 177.50621096 -276.24300319 177.47307932 C-264.12700239 177.43487071 -252.01105543 177.38545723 -239.8951 177.33509517 C-214.97177323 177.23174847 -190.04841188 177.14249694 -165.125 177.0625 C-164.6454439 173.87080224 -164.16620114 170.67905751 -163.68701172 167.48730469 C-163.55223923 166.59034882 -163.41746674 165.69339294 -163.27861023 164.76925659 C-162.55316122 159.93615467 -161.8350042 155.10217408 -161.1328125 150.265625 C-154.67160051 106.30925958 -143.59216739 62.98239957 -106.390625 34.74609375 C-76.91356263 13.27910268 -36.57570693 -0.46891932 0 0 Z " fill="#319637" transform="translate(757.125,258.9375)"/>
<path d="M0 0 C1.22857727 -0.00953201 2.45715454 -0.01906403 3.72296143 -0.02888489 C5.69652618 -0.02751778 5.69652618 -0.02751778 7.70996094 -0.02612305 C9.08990608 -0.03001648 10.46985004 -0.03435247 11.84979248 -0.03910828 C14.73795458 -0.04655167 17.62599442 -0.04629398 20.51416016 -0.04101562 C24.19008861 -0.03523857 27.8655103 -0.05211782 31.54135513 -0.0753603 C34.39150857 -0.09019758 37.24154298 -0.09095562 40.09172821 -0.08785057 C42.09781622 -0.08860439 44.10388592 -0.10240249 46.10992432 -0.11653137 C58.59755976 -0.05386319 69.17658945 2.60521774 78.70214844 11.0559082 C88.32238908 21.21754767 91.29429481 36.00319193 95.25683594 49.0246582 C95.8788307 51.04992158 96.50148151 53.07498357 97.12475586 55.09985352 C98.38931614 59.21167464 99.64987863 63.3246886 100.90722656 67.4387207 C102.48461132 72.5964784 104.07779818 77.74916254 105.67871094 82.8996582 C116.47222254 117.66715493 126.76814664 152.58697126 137.08236694 187.49899292 C139.74381231 196.5061578 142.4137741 205.51076511 145.09194946 214.51296997 C146.68477031 219.86813333 148.26861286 225.22572597 149.83905029 230.5874939 C150.8203559 233.92436985 151.82077553 237.25540613 152.81933594 240.5871582 C153.13708984 241.68833984 153.45484375 242.78952148 153.78222656 243.92407227 C156.78874915 253.81495708 161.44476104 262.08877522 170.69433594 267.2746582 C176.42067202 269.77787189 181.93581157 269.55283156 188.06784058 269.5262146 C189.21888436 269.52918474 190.36992815 269.53215488 191.55585206 269.53521502 C194.74214613 269.54152442 197.92829082 269.5389564 201.11458039 269.53269625 C204.55434184 269.52815634 207.99408108 269.53520586 211.43383789 269.54100037 C217.39238156 269.54962802 223.35089553 269.55144278 229.30944443 269.54905319 C237.93319148 269.54595396 246.55687297 269.55760002 255.18060352 269.57360299 C269.1840358 269.59955935 283.18746814 269.61958103 297.19091797 269.63305664 C298.44771078 269.6342722 298.44771078 269.6342722 299.72989334 269.63551231 C311.61988688 269.64673354 323.50987574 269.652015 335.39987387 269.65489943 C336.6557571 269.65520541 336.6557571 269.65520541 337.93701172 269.65551758 C339.1913615 269.65581748 339.1913615 269.65581748 340.47105168 269.65612344 C354.42018892 269.65985754 368.36925502 269.67895029 382.31835663 269.71061194 C390.9189734 269.72951734 399.51940767 269.73549374 408.12003948 269.72479476 C414.01450789 269.71847151 419.9088455 269.72652782 425.80328523 269.74584888 C429.20282195 269.75652177 432.60204097 269.76069811 436.00157547 269.7473774 C439.69031129 269.73627259 443.37818117 269.74967063 447.06686401 269.76913452 C448.13671598 269.76000986 449.20656795 269.75088521 450.30883968 269.74148405 C457.66114434 269.81699374 463.3179372 270.93670044 468.75292969 276.30981445 C469.20796875 276.97883789 469.66300781 277.64786133 470.13183594 278.3371582 C470.60492187 279.00875977 471.07800781 279.68036133 471.56542969 280.37231445 C474.34929544 285.06346539 474.41184013 290.20125443 473.19824219 295.3996582 C471.16816868 301.4554707 467.83606366 305.23491068 462.25181866 308.38353729 C456.91945358 310.97096003 451.79415262 310.83074812 445.96211243 310.78259277 C444.2137739 310.79195272 444.2137739 310.79195272 442.4301154 310.80150175 C439.21223009 310.81465235 435.99495318 310.80997902 432.77708352 310.79755688 C429.29974658 310.78848118 425.8224899 310.80248889 422.34516907 310.81347656 C415.53856946 310.83124242 408.73214653 310.82742967 401.92554007 310.815826 C396.38950028 310.8067806 390.85350989 310.80557247 385.31746483 310.80992126 C384.52854883 310.8105342 383.73963283 310.81114713 382.92681029 310.81177863 C381.32391505 310.81305759 379.72101983 310.81435445 378.11812463 310.815669 C363.09362027 310.8270701 348.06921359 310.81397043 333.04472526 310.79246753 C320.17242734 310.77461434 307.3002738 310.77768686 294.42797852 310.79614258 C279.46381114 310.81758763 264.49972947 310.82595324 249.53554887 310.81369352 C247.93712788 310.8124194 246.33870688 310.81116192 244.74028587 310.80992126 C243.56076631 310.80899561 243.56076631 310.80899561 242.35741806 310.80805126 C236.83503718 310.80460794 231.31271094 310.81040502 225.79033852 310.81983948 C219.04988593 310.83110209 212.30961946 310.8279312 205.56918798 310.8067165 C202.13459088 310.79626027 198.70030318 310.79199004 195.26570892 310.80531311 C191.53066046 310.81630796 187.79647193 310.8024556 184.06147766 310.78259277 C182.45724669 310.7959771 182.45724669 310.7959771 180.82060701 310.80963182 C163.1575059 310.62850382 147.3286632 302.25415753 134.69433594 290.2746582 C124.36785118 279.71648949 119.52175062 267.31051925 115.15136719 253.5090332 C114.810672 252.43823517 114.46997681 251.36743713 114.11895752 250.26419067 C109.68832728 236.22858966 105.54141572 222.10691662 101.37420654 207.99142456 C98.94391286 199.75946445 96.50345583 191.5305159 94.06152344 183.30200195 C93.82340061 182.49940256 93.58527779 181.69680317 93.33993912 180.86988258 C89.65695843 168.46084652 85.91323593 156.07241686 82.06933594 143.7121582 C77.90623848 130.32393023 73.92472568 116.89012958 70.02105713 103.42401123 C65.44594009 87.65375321 60.62481221 71.96517163 55.70629883 56.29882812 C55.30288017 55.00901535 55.30288017 55.00901535 54.89131165 53.69314575 C54.38675573 52.08067656 53.87978949 50.46895895 53.37004089 48.85812378 C51.69433594 43.499106 51.69433594 43.499106 51.69433594 41.2746582 C50.98547241 41.28132004 50.27660889 41.28798187 49.54626465 41.29484558 C42.83823799 41.35516787 36.13028797 41.40073928 29.42205048 41.43009472 C25.97395679 41.44569449 22.52608882 41.46682714 19.078125 41.50097656 C15.10647359 41.54006275 11.13491089 41.55441449 7.16308594 41.56762695 C5.93569702 41.58311081 4.70830811 41.59859467 3.44372559 41.61454773 C-4.82967312 41.61616301 -10.52291589 40.74799355 -17.55566406 36.1496582 C-21.87276298 31.63632752 -23.86408303 26.97320899 -24.86816406 20.8371582 C-23.84208861 14.33868036 -21.23403495 8.30502345 -15.86816406 4.2746582 C-10.94769831 1.04967824 -5.81311902 0.02489844 0 0 Z " fill="#309636" transform="translate(250.3056640625,367.725341796875)"/>
<path d="M0 0 C11.30209714 0.59721949 22.08911104 2.45581164 33.10546875 5.01953125 C33.86617676 5.19468262 34.62688477 5.36983398 35.41064453 5.55029297 C60.56639393 11.50460983 84.4529418 23.23681685 104.10546875 40.01953125 C105.01941406 40.78136719 105.93335938 41.54320312 106.875 42.328125 C133.07642443 64.90723269 146.08100776 99.20360214 149.10546875 133.01953125 C149.86284491 148.28132018 148.73544686 162.99108489 146.10546875 178.01953125 C144.78546875 178.01953125 143.46546875 178.01953125 142.10546875 178.01953125 C141.75935547 177.06252319 141.75935547 177.06252319 141.40625 176.08618164 C129.91241173 144.46392947 115.65373548 115.50190114 91.55078125 91.47265625 C90.0990042 90.01624094 88.66704683 88.53886311 87.28125 87.01953125 C78.32863358 77.41001426 67.02305797 70.21086195 56.10546875 63.01953125 C59.09989579 66.52805168 62.10378099 70.02710193 65.1484375 73.4921875 C71.96125861 81.25830918 78.51865082 89.16336236 84.81884766 97.35058594 C86.05701549 98.95667993 87.30564855 100.55468947 88.5546875 102.15234375 C103.85088793 121.80833078 117.53248331 142.09236355 129.35546875 164.01953125 C129.69414978 164.64438416 130.03283081 165.26923706 130.3817749 165.9130249 C131.34413679 167.69444815 132.29535268 169.48187899 133.24609375 171.26953125 C133.79813477 172.3059375 134.35017578 173.34234375 134.91894531 174.41015625 C136.10546875 177.01953125 136.10546875 177.01953125 136.10546875 180.01953125 C127.84130324 179.56489531 120.18004863 177.6854736 112.23046875 175.45703125 C111.59606873 175.28034912 110.9616687 175.10366699 110.30804443 174.92163086 C72.3412171 164.29077625 38.44106864 144.94954584 18.10546875 110.01953125 C1.73625063 80.24675463 -4.12559451 48.07782597 -4.01953125 14.33203125 C-4.02339844 13.05908203 -4.02726562 11.78613281 -4.03125 10.47460938 C-4.02996094 9.26869141 -4.02867187 8.06277344 -4.02734375 6.8203125 C-4.02621582 5.72887939 -4.02508789 4.63744629 -4.02392578 3.51293945 C-3.83726626 -0.08395428 -3.64849201 0.0246187 0 0 Z " fill="#319637" transform="translate(438.89453125,231.98046875)"/>
<path d="M0 0 C8.11412521 6.29468303 14.68668261 16.67887036 16 27 C17.10439741 40.73984569 15.65448679 52.1545162 6.65234375 63.1953125 C-2.22982353 72.896403 -12.12817904 77.92243898 -25.20703125 79.21875 C-37.1999634 79.73736328 -47.98253956 75.20778958 -57.1875 67.8125 C-61.54811286 63.79865556 -64.36607623 59.27564021 -67 54 C-67.41507812 53.17886719 -67.83015625 52.35773437 -68.2578125 51.51171875 C-72.45843757 41.83265609 -72.71837542 30.00203067 -69.375 20 C-67.17744263 14.91091979 -64.40980752 10.36388992 -61 6 C-60.52175781 5.38382813 -60.04351562 4.76765625 -59.55078125 4.1328125 C-44.16921272 -13.3022148 -17.80951679 -12.77957116 0 0 Z " fill="#319637" transform="translate(490,701)"/>
<path d="M0 0 C9.05759367 6.70479531 16.00216899 16.06366532 18.2265625 27.23828125 C19.63817318 40.93121374 18.13047351 52.6911979 9.98046875 64.109375 C1.52163849 74.37677476 -9.1474492 80.18056419 -22.32421875 81.4921875 C-34.85805846 82.05448711 -45.54380337 77.5818705 -54.7734375 69.23828125 C-64.6218702 58.72961843 -68.36039577 47.51593568 -68.015625 33.17578125 C-67.2930532 21.42816228 -61.48719332 10.93758628 -52.93359375 2.87109375 C-36.96351635 -9.20032099 -17.08572275 -10.8530436 0 0 Z " fill="#319637" transform="translate(679.7734375,698.76171875)"/>
<path d="M0 0 C1.25154877 -0.00637985 2.50309753 -0.0127597 3.79257202 -0.01933289 C5.16981976 -0.02086161 6.54706801 -0.02197555 7.92431641 -0.02270508 C9.32817622 -0.02591633 10.73203568 -0.0292803 12.13589478 -0.03279114 C15.08328019 -0.0387893 18.03063625 -0.04063038 20.97802734 -0.04003906 C24.75668148 -0.03993751 28.5351474 -0.05357932 32.31375694 -0.07081127 C35.21508652 -0.08192618 38.11637057 -0.08395841 41.01771927 -0.08342934 C42.41078972 -0.08461063 43.8038613 -0.08904073 45.19691086 -0.0967617 C47.14557227 -0.10654884 49.09428859 -0.1024226 51.04296875 -0.09765625 C52.15247894 -0.09908127 53.26198914 -0.10050629 54.40512085 -0.10197449 C57.15087891 0.14526367 57.15087891 0.14526367 60.15087891 2.14526367 C57.4161683 3.51261898 55.23347974 3.28000312 52.17236328 3.29052734 C50.91766235 3.2969072 49.66296143 3.30328705 48.37023926 3.30986023 C46.9950362 3.31138867 45.61983262 3.31250276 44.24462891 3.31323242 C42.83980271 3.31644434 41.43497685 3.31980836 40.03015137 3.32331848 C37.08454614 3.32931002 34.13897026 3.33115831 31.19335938 3.33056641 C27.41351475 3.33046467 23.63385748 3.34412855 19.85405731 3.36133862 C16.95277029 3.37243953 14.05152887 3.37448622 11.15022278 3.37395668 C9.75632581 3.37513924 8.36242776 3.37957638 6.96855164 3.38728905 C5.0221904 3.39705191 3.0757744 3.39295628 1.12939453 3.38818359 C-0.53367737 3.39032112 -0.53367737 3.39032112 -2.23034668 3.39250183 C-4.84912109 3.14526367 -4.84912109 3.14526367 -6.84912109 1.14526367 C-5.06243099 -0.64142643 -2.41410438 0.00830573 0 0 Z " fill="#3B9C41" transform="translate(249.84912109375,367.854736328125)"/>
<path d="M0 0 C2.7839183 1.39195915 2.97898997 3.15575779 4 6 C4.66 5.34 5.32 4.68 6 4 C7 5 7 5 7.0625 8.0625 C7.041875 9.031875 7.02125 10.00125 7 11 C5.68 11 4.36 11 3 11 C2.01 7.37 1.02 3.74 0 0 Z " fill="#1F8922" transform="translate(578,399)"/>
<path d="M0 0 C0.66 0.33 1.32 0.66 2 1 C1.01 1.33 0.02 1.66 -1 2 C-1.33 2.99 -1.66 3.98 -2 5 C-3.31018441 5.71108299 -4.64777819 6.37253017 -6 7 C-7.28016835 8.00435972 -8.53128122 9.04690261 -9.75 10.125 C-10.36359375 10.66382813 -10.9771875 11.20265625 -11.609375 11.7578125 C-12.06828125 12.16773438 -12.5271875 12.57765625 -13 13 C-11.50536684 9.3852622 -9.4391696 7.35564512 -6.5 4.8125 C-5.7059375 4.11769531 -4.911875 3.42289063 -4.09375 2.70703125 C-2 1 -2 1 0 0 Z " fill="#16871B" transform="translate(634,697)"/>
</svg>
